<svg id="Layer_1" xmlns="http://www.w3.org/2000/svg" viewBox="581 247 1773 300"><style>.st0{fill:#FFFFFF;}</style><path class="st0" d="M892.258 260.452h34.1v90.1h-34.1c-17-55.8-101.4-64.2-154.2-64.2-46.3 0-80.8 12.2-80.8 35.7 0 27.2 65.1 27.9 117.7 35.1 67.8 9.2 166.6 7.6 166.6 96.2 0 69.9-92.9 93.6-151 93.8-104.2.1-136.5-29.9-160.3-29.9-6.6 0-10 6.4-10 19.2h-34v-101.1h34c12.8 60.9 106.5 74.2 146 74.2 28 0 100-5.5 100-38.8 0-31.5-46.2-29.9-102.3-37.9-61.6-8.8-183-10.7-183-92.5 0-63.1 70.7-93.3 150.1-93.3 92.2 0 137.8 29.9 151.4 29.9 6.5 0 9.7-5.9 9.8-16.5zM1211.658 247.052c-124.8 0-207.5 64.3-207.5 150s82.7 150 207.5 150 207.5-64.3 207.5-150-82.7-150-207.5-150zm0 40c71.6 0 119 47.1 119 110s-47.4 110-119 110-119-47.1-119-110 47.4-110 119-110zM1837.258 530.352h-54.9l-219.1-187.4v139.4c0 9.3 4.7 14 14 14h40.1v34h-163.8v-34h40.1c9.3 0 14-4.7 14-14v-170.7c0-9.3-4.7-14-14-14h-40.1v-34h137.4l190.7 163v-115c0-9.3-4.7-14-14-14h-40.1v-34h163.8v34h-40c-9.3 0-14 4.7-14 14l-.1 218.7zM2192.958 263.652h161v34h-31.6c-13.4 0-24.6 4.7-33.6 14l-107.8 114.9v55.8c0 9.3 4.7 14 14 14h40.1v34h-194.3v-34h40c9.3 0 14-4.7 14-14v-52.1l-110.5-118.6c-9.1-9.3-20.3-14-33.6-14h-31.7v-34h197.9v34h-19.6c-4.8 0-7.9 1.7-9.2 5-1.3 3.3-.8 6.3 1.6 9l65.3 69.7 65.3-69.7c2.4-2.7 2.9-5.7 1.6-9-1.3-3.3-4.4-5-9.2-5h-19.6v-34h-.1z"/></svg>
