<?xml version="1.0" encoding="UTF-8" standalone="no"?>
<svg width="124px" height="124px" viewBox="0 0 124 124" version="1.1" xmlns="http://www.w3.org/2000/svg" xmlns:xlink="http://www.w3.org/1999/xlink">
    <!-- Generator: Sketch 41.2 (35397) - http://www.bohemiancoding.com/sketch -->
    <title>Default_Thumbnail_Game_124</title>
    <desc>Created with Sketch.</desc>
    <defs></defs>
    <g id="Page-1" stroke="none" stroke-width="1" fill="none" fill-rule="evenodd">
        <g id="Artboard">
            <g id="Default_Thumbnail_Game_124">
                <rect id="Rectangle" fill="#1e2832" x="0" y="0" width="124" height="124"></rect>
                <rect id="Rectangle" fill="#000000" x="1" y="1" width="122" height="122"></rect>
                <path d="M55.9079627,46.5987738 C52.730527,44.6064782 49.6216999,42 45.9875883,42 C40.104401,42 34.7572185,46.998101 34.4013114,53.0769899 L34.3927353,53.0769899 C34.3927353,53.0769899 31.3482288,71.370083 31.0159059,76.6915523 C30.681439,82 35.7155948,82 37.2850165,82 C39.3368424,82 42.6386311,81.1015138 44.3238298,79.0679833 C47.3704803,75.3242906 49.2958091,71.9886062 51.2039857,68.409853 L72.8006859,68.409853 C74.7067185,71.9886062 76.6320472,75.3242906 79.6808418,79.0679833 C81.3638965,81.1015138 84.6678292,82 86.7153671,82 C88.2847888,82 93.3146566,82 92.9844777,76.6915523 C92.6564428,71.370083 89.6140803,53.0769899 89.6140803,53.0769899 L89.6012162,53.0769899 C89.2495972,46.998101 83.9024146,42 78.0149393,42 C74.3786836,42 71.2720005,44.6064782 68.0945649,46.5987738 L55.9079627,46.5987738 Z" id="Fill-1" fill="#464646"></path>
            </g>
        </g>
    </g>
</svg>